<?xml version="1.0" standalone="no"?><!DOCTYPE svg PUBLIC "-//W3C//DTD SVG 1.1//EN" "http://www.w3.org/Graphics/SVG/1.1/DTD/svg11.dtd"><svg t="1584685742145" class="icon" viewBox="0 0 1024 1024" version="1.1" xmlns="http://www.w3.org/2000/svg" p-id="5420" xmlns:xlink="http://www.w3.org/1999/xlink" width="200" height="200"><defs><style type="text/css">@font-face { font-family: element-icons; src: url("chrome-extension://moombeodfomdpjnpocobemoiaemednkg/fonts/element-icons.woff") format("woff"), url("chrome-extension://moombeodfomdpjnpocobemoiaemednkg/fonts/element-icons.ttf ") format("truetype"); }
</style></defs><path d="M560 448a192 192 0 1 0 0-384 192 192 0 0 0 0 384z m0-320.256a128.256 128.256 0 1 1 0 256.576 128.256 128.256 0 0 1 0-256.576zM368 448c7.424 0 14.464-1.344 21.632-2.176a255.744 255.744 0 0 1-52.224-65.6 128 128 0 0 1-97.664-124.16 128 128 0 0 1 97.664-124.16c13.824-24.704 31.296-46.784 52.224-65.6C382.464 65.344 375.424 64 368 64a192 192 0 1 0 0 384z m-36.16 67.648C172.352 533.824 48 667.648 48 832a32 32 0 0 0 64 0c0-93.312 50.496-174.208 125.12-218.944a370.56 370.56 0 0 1 94.72-97.408zM727.68 640h86.848c-58.432-77.312-150.208-128-254.592-128a320 320 0 0 0-320 320 32 32 0 0 0 64 0 256 256 0 0 1 256-256c64.576 0 122.752 24.64 167.744 64z m210.944 111.296a31.488 31.488 0 0 0-26.624-15.296c-0.704 0-1.28 0.384-1.92 0.384-0.96 0.064-1.856-0.448-2.816-0.384H816a32 32 0 0 0 0 64h15.616l-80.128 80.192-134.848-134.912a33.28 33.28 0 0 0-25.088-9.472 32.768 32.768 0 0 0-24.704 9.408l-157.696 157.76a33.152 33.152 0 0 0 46.848 46.848l135.296-135.232 135.104 135.104c6.848 6.848 16 9.92 25.088 9.472a32.96 32.96 0 0 0 25.088-9.472l103.424-103.424v17.728a32 32 0 0 0 64 0V768a30.848 30.848 0 0 0-5.376-16.704z" fill="#ffffff" p-id="5421"></path></svg>