<?xml version="1.0" standalone="no"?><!DOCTYPE svg PUBLIC "-//W3C//DTD SVG 1.1//EN" "http://www.w3.org/Graphics/SVG/1.1/DTD/svg11.dtd"><svg t="1584695048824" class="icon" viewBox="0 0 1024 1024" version="1.1" xmlns="http://www.w3.org/2000/svg" p-id="19812" xmlns:xlink="http://www.w3.org/1999/xlink" width="200" height="200"><defs><style type="text/css">@font-face { font-family: element-icons; src: url("chrome-extension://moombeodfomdpjnpocobemoiaemednkg/fonts/element-icons.woff") format("woff"), url("chrome-extension://moombeodfomdpjnpocobemoiaemednkg/fonts/element-icons.ttf ") format("truetype"); }
</style></defs><path d="M512 1024.001426C310.036003 1024.001426 146.311835 567.652144 146.311835 365.688165 146.311835 163.724187 310.036003 0 512 0 713.963997 0 877.688165 163.724187 877.688165 365.688165 877.688165 567.652144 713.963997 1024.001426 512 1024.001426ZM512 950.863793C632.212952 950.863793 804.550532 588.011942 804.550532 365.688165 804.550532 204.116968 673.571197 73.137633 512 73.137633 350.428803 73.137633 219.449468 204.116968 219.449468 365.688165 219.449468 588.011942 391.787048 950.863793 512 950.863793ZM512 511.963431C431.214401 511.963431 365.724734 446.473764 365.724734 365.688165 365.724734 284.902566 431.214401 219.412899 512 219.412899 592.785599 219.412899 658.275266 284.902566 658.275266 365.688165 658.275266 446.473764 592.785599 511.963431 512 511.963431ZM512 438.825798C552.392799 438.825798 585.137633 406.080946 585.137633 365.688165 585.137633 325.295384 552.392799 292.550532 512 292.550532 471.607201 292.550532 438.862367 325.295384 438.862367 365.688165 438.862367 406.080946 471.607201 438.825798 512 438.825798Z" p-id="19813" fill="#e6e6e6"></path></svg>