<?xml version="1.0" standalone="no"?><!DOCTYPE svg PUBLIC "-//W3C//DTD SVG 1.1//EN" "http://www.w3.org/Graphics/SVG/1.1/DTD/svg11.dtd"><svg t="1584687999632" class="icon" viewBox="0 0 1024 1024" version="1.1" xmlns="http://www.w3.org/2000/svg" p-id="7424" xmlns:xlink="http://www.w3.org/1999/xlink" width="200" height="200"><defs><style type="text/css">@font-face { font-family: element-icons; src: url("chrome-extension://moombeodfomdpjnpocobemoiaemednkg/fonts/element-icons.woff") format("woff"), url("chrome-extension://moombeodfomdpjnpocobemoiaemednkg/fonts/element-icons.ttf ") format("truetype"); }
</style></defs><path d="M885.333333 685.866667H170.666667c-37.333333 0-68.266667-30.933333-68.266667-68.266667V235.733333c0-53.333333 43.733333-97.066667 97.066667-97.066666h656c53.333333 0 97.066667 43.733333 97.066666 97.066666v381.866667c1.066667 38.4-29.866667 68.266667-67.2 68.266667zM199.466667 187.733333c-25.6 0-46.933333 21.333333-46.933334 46.933334v381.866666c0 10.666667 8.533333 18.133333 18.133334 18.133334h714.666666c10.666667 0 18.133333-8.533333 18.133334-18.133334V235.733333c0-25.6-21.333333-46.933333-46.933334-46.933333H199.466667z" fill="#2c2c2c" p-id="7425"></path><path d="M530.133333 422.4c-54.4 0-99.2-44.8-99.2-99.2 0-54.4 44.8-99.2 99.2-99.2 54.4 0 99.2 44.8 99.2 99.2 1.066667 54.4-43.733333 99.2-99.2 99.2z m0-156.8c-32 0-57.6 25.6-57.6 57.6 0 32 25.6 57.6 57.6 57.6 32 0 57.6-25.6 57.6-57.6 0-32-25.6-57.6-57.6-57.6z" fill="#2c2c2c" p-id="7426"></path><path d="M681.6 562.133333c-10.666667 0-19.2-8.533333-19.2-19.2 0-67.2-70.4-117.333333-133.333333-117.333333-61.866667 0-134.4 51.2-134.4 117.333333 0 10.666667-8.533333 19.2-19.2 19.2s-19.2-8.533333-19.2-19.2c0-89.6 91.733333-156.8 173.866666-156.8 91.733333 0 171.733333 72.533333 171.733334 156.8-1.066667 10.666667-9.6 19.2-20.266667 19.2zM934.4 692.266667H121.6c-10.666667 0-20.266667-8.533333-20.266667-20.266667v-78.933333c0-1.066667 1.066667-2.133333 3.2-3.2h1.066667l48 3.2c1.066667 0 1.066667 1.066667 1.066667 1.066666 0 1.066667 1.066667 1.066667 1.066666 2.133334l743.466667 5.333333c1.066667 0 2.133333 0 2.133333-1.066667 1.066667-1.066667 2.133333-2.133333 3.2-2.133333l45.866667-6.4c2.133333 0 4.266667 1.066667 4.266667 4.266667v76.8c0 10.666667-9.6 19.2-20.266667 19.2z" fill="#2c2c2c" p-id="7427"></path><path d="M565.333333 829.866667h-74.666666v-128c0-5.333333 4.266667-9.6 9.6-9.6h55.466666c5.333333 0 9.6 4.266667 9.6 9.6v128z" fill="#2c2c2c" p-id="7428"></path><path d="M779.733333 902.4H276.266667c-20.266667 0-36.266667-16-36.266667-36.266667s16-36.266667 36.266667-36.266666H778.666667c20.266667 0 36.266667 16 36.266666 36.266666 1.066667 19.2-14.933333 36.266667-35.2 36.266667z" fill="#2c2c2c" p-id="7429"></path></svg>